<?xml version="1.0" standalone="no"?>
<!DOCTYPE svg PUBLIC "-//W3C//DTD SVG 20010904//EN"
 "http://www.w3.org/TR/2001/REC-SVG-20010904/DTD/svg10.dtd">
<svg version="1.0" xmlns="http://www.w3.org/2000/svg"
 width="263.000000pt" height="263.000000pt" viewBox="0 0 263.000000 263.000000"
 preserveAspectRatio="xMidYMid meet">
<metadata>
Created by potrace 1.11, written by Peter Selinger 2001-2013
</metadata>
<g transform="translate(0.000000,263.000000) scale(0.100000,-0.100000)"
fill="#000000" stroke="none">
<path d="M1120 2618 c-289 -25 -572 -173 -701 -368 -32 -49 -48 -74 -88 -146
-64 -116 -111 -299 -105 -409 5 -92 26 -169 82 -295 37 -83 73 -208 78 -269
12 -155 39 -221 104 -253 19 -10 50 -18 68 -18 17 0 32 -3 33 -7 0 -5 2 -17 4
-28 2 -11 7 -40 10 -65 30 -225 143 -461 287 -597 126 -118 232 -161 388 -158
90 2 145 29 224 110 149 152 267 336 328 510 l32 91 50 -1 c103 -1 156 49 196
185 38 132 74 192 166 282 48 47 93 101 105 127 30 63 36 175 16 287 -9 49
-19 116 -23 149 -28 261 -299 571 -659 753 -191 97 -392 137 -595 120z"/>
</g>
</svg>
