<?xml version="1.0" encoding="UTF-8"?>
<svg width="145px" height="145px" viewBox="0 0 145 145" version="1.1" xmlns="http://www.w3.org/2000/svg" xmlns:xlink="http://www.w3.org/1999/xlink">
    <!-- Generator: Sketch 51.3 (57544) - http://www.bohemiancoding.com/sketch -->
    <title>projects/wordbase/logo</title>
    <desc>Created with Sketch.</desc>
    <defs></defs>
    <g id="projects/wordbase/logo" stroke="none" stroke-width="1" fill="none" fill-rule="evenodd">
        <rect id="Rectangle-2" fill="#F3F3F3" fill-rule="nonzero" x="0" y="0" width="145" height="145" rx="20"></rect>
        <path d="M133,113 L133,95 C133.700534,91.6666667 135.700534,90 139,90 C142.299466,90 144.299466,91.6666667 145,95 L145,125 C145,136.045695 136.045695,145 125,145 L67,145 L67,133 L113,133 C124.045695,133 133,124.045695 133,113 Z" id="Rectangle" fill="#00C9E8" fill-rule="nonzero"></path>
        <path d="M66,23 L66,5 C66.7005341,1.66666667 68.7005341,2.84919767e-16 72,0 C75.2994659,0 77.2994659,1.66666667 78,5 L78,35 C78,46.045695 69.045695,55 58,55 L0,55 L0,43 L46,43 C57.045695,43 66,34.045695 66,23 Z" id="Rectangle" fill="#FE8800" fill-rule="nonzero" transform="translate(39.000000, 27.500000) rotate(-180.000000) translate(-39.000000, -27.500000) "></path>
        <path d="M72,0 L125.004167,0 C136.047561,0 145,8.96297022 145,20.0010832 L145,74 L78.0049158,74 C74.6884924,74 72,71.3225833 72,68.006952 L72,0 Z" id="orange" fill="#FE8800"></path>
        <path d="M0,74 L66.0005656,74 C69.3139617,74 72,76.6910787 72,79.9994344 L72,146 L20.008191,146 C8.95797222,146 0,137.044861 0,125.991809 L0,74 Z" id="blue" fill="#00C9E8"></path>
        <g id="eyes-blue" transform="translate(13.000000, 100.000000)" stroke="#FFFFFF" stroke-width="6">
            <circle id="Oval" cx="7" cy="7" r="7"></circle>
            <circle id="Oval" cx="35" cy="7" r="7"></circle>
        </g>
        <g id="eyes-orange" transform="translate(83.000000, 38.000000)" stroke="#FFFFFF" stroke-linecap="round" stroke-linejoin="round" stroke-width="6">
            <path d="M50,10 C50,4.4771525 45.5228475,0 40,0 C34.4771525,0 30,4.4771525 30,10" id="Oval-2"></path>
            <path d="M20,10 C20,4.4771525 15.5228475,0 10,0 C4.4771525,0 0,4.4771525 0,10" id="Oval-2"></path>
        </g>
    </g>
</svg>