<?xml version="1.0" encoding="UTF-8"?>
<svg width="400px" height="400px" viewBox="0 0 400 400" version="1.1" xmlns="http://www.w3.org/2000/svg" xmlns:xlink="http://www.w3.org/1999/xlink">
    <!-- Generator: Sketch 51.3 (57544) - http://www.bohemiancoding.com/sketch -->
    <title>projects/lasercat/logo</title>
    <desc>Created with Sketch.</desc>
    <defs>
        <path d="M174.40514,0.882324325 C330.093454,-11.8142775 362.810372,115.659869 353.851774,180.951022 C344.893177,246.242175 229.44078,253.125 131.458807,253.125 C33.4768348,253.125 -7.35477868,182.422613 1.07762131,144.88383 C9.5100213,107.345046 18.7168254,13.5789261 174.40514,0.882324325 Z" id="path-1"></path>
    </defs>
    <g id="projects/lasercat/logo" stroke="none" stroke-width="1" fill="none" fill-rule="evenodd">
        <g id="Group-3" transform="translate(0.000000, 54.000000)">
            <g id="Group" transform="translate(272.916667, 0.000000)" fill-rule="nonzero" stroke="#000000" stroke-width="4">
                <path d="M89.3228512,118.19644 C95.2921651,54.8780551 90.5859045,17.1281748 75.2040694,4.9467994 C59.8222343,-7.23457599 35.0311417,6.48576529 0.83079159,46.1078233 L89.3228512,118.19644 Z" id="Path-2" fill="#FFE07B"></path>
                <path d="M76.5824923,99.7248346 C80.8609102,51.7020361 77.1651851,24.8179739 65.4953168,19.0726482 C53.8254485,13.3273224 36.0196623,27.8668102 12.0779581,62.6911115 L76.5824923,99.7248346 Z" id="Path-3" fill="#FD9BAF"></path>
            </g>
            <g id="Group" transform="translate(84.895833, 68.750000) scale(-1, 1) translate(-84.895833, -68.750000) translate(38.541667, 9.375000)" fill-rule="nonzero" stroke="#000000" stroke-width="4">
                <path d="M89.3228512,118.19644 C95.2921651,54.8780551 90.5859045,17.1281748 75.2040694,4.9467994 C59.8222343,-7.23457599 35.0311417,6.48576529 0.83079159,46.1078233 L89.3228512,118.19644 Z" id="Path-2" fill="#FFE07B"></path>
                <path d="M76.5824923,99.7248346 C80.8609102,51.7020361 77.1651851,24.8179739 65.4953168,19.0726482 C53.8254485,13.3273224 36.0196623,27.8668102 12.0779581,62.6911115 L76.5824923,99.7248346 Z" id="Path-3" fill="#FD9BAF"></path>
            </g>
            <g id="Path-7" transform="translate(25.000000, 39.583333)">
                <mask id="mask-2" fill="white">
                    <use xlink:href="#path-1"></use>
                </mask>
                <path stroke="#0B0F12" stroke-width="4" d="M174.242577,-1.11105803 C245.768862,-6.94412759 296.843733,16.0725085 327.517312,60.5355631 C351.631329,95.4901697 361.149011,142.4808 355.833209,181.222894 C351.548774,212.448289 323.958268,232.362985 276.494752,243.469587 C239.686315,252.082869 194.491333,255.125 131.458807,255.125 C85.9846203,255.125 49.3500954,239.99966 24.9177402,214.464112 C4.17449707,192.784251 -5.51910517,165.125356 -0.873752006,144.44549 C-0.314695334,141.956719 1.77652117,131.860846 1.89203122,131.317298 C3.16301836,125.336501 4.32145646,120.401942 5.67568882,115.406681 C9.27252427,102.13929 13.8321782,90.2387647 20.085046,78.9353928 C31.3905371,58.498343 47.5781308,41.4055688 70.0447264,28.0735165 C96.4121309,12.4266592 130.750359,2.43579374 174.242577,-1.11105803 Z"></path>
                <path d="M346.347889,97.1402214 C337.884066,99.2196563 333.652155,101.64784 333.652155,104.424772 C333.652155,107.201704 339.249792,109.671595 350.445065,111.834444 L346.347889,97.1402214 Z" stroke="#000000" fill="#E9B312" fill-rule="nonzero" mask="url(#mask-2)" transform="translate(342.048610, 104.487333) rotate(-9.000000) translate(-342.048610, -104.487333) "></path>
                <path d="M352.083901,121.709813 C343.620078,123.789248 339.388166,126.217431 339.388166,128.994363 C339.388166,131.771295 344.985803,134.241186 356.181077,136.404036 L352.083901,121.709813 Z" stroke="#000000" fill="#E9B312" fill-rule="nonzero" mask="url(#mask-2)" transform="translate(347.784622, 129.056924) rotate(2.000000) translate(-347.784622, -129.056924) "></path>
                <path d="M17.38186,100.876384 C8.91803717,102.955819 4.68612577,105.384002 4.68612577,108.160934 C4.68612577,110.937866 10.2837626,113.407757 21.4790361,115.570607 L17.38186,100.876384 Z" stroke="#000000" fill="#E9B312" fill-rule="nonzero" mask="url(#mask-2)" transform="translate(13.082581, 108.223495) scale(-1, 1) rotate(-9.000000) translate(-13.082581, -108.223495) "></path>
                <path d="M145.166216,-3.43474497 C136.702394,-1.35531005 132.470482,1.07287344 132.470482,3.84980551 C132.470482,6.62673757 138.068119,9.09662845 149.263392,11.2594781 L145.166216,-3.43474497 Z" stroke="#000000" fill="#E9B312" fill-rule="nonzero" mask="url(#mask-2)" transform="translate(140.866937, 3.912367) scale(-1, 1) rotate(-80.000000) translate(-140.866937, -3.912367) "></path>
                <path d="M177.969097,-5.30282615 C169.505274,-3.22339124 165.273362,-0.795207744 165.273362,1.98172432 C165.273362,4.75865639 170.870999,7.22854727 182.066273,9.39139695 L177.969097,-5.30282615 Z" stroke="#000000" fill="#E9B312" fill-rule="nonzero" mask="url(#mask-2)" transform="translate(173.669818, 2.044285) scale(-1, 1) rotate(-80.000000) translate(-173.669818, -2.044285) "></path>
                <path d="M206.085851,-8.10494792 C197.622029,-6.02551301 193.390117,-3.59732952 193.390117,-0.820397446 C193.390117,1.95653462 198.987754,4.4264255 210.183027,6.58927518 L206.085851,-8.10494792 Z" stroke="#000000" fill="#E9B312" fill-rule="nonzero" mask="url(#mask-2)" transform="translate(201.786572, -0.757836) scale(-1, 1) rotate(-101.000000) translate(-201.786572, 0.757836) "></path>
                <path d="M10.9339445,129.182138 C2.47012173,131.261573 -1.76178967,133.689756 -1.76178967,136.466688 C-1.76178967,139.24362 3.83584712,141.713511 15.0311207,143.876361 L10.9339445,129.182138 Z" stroke="#000000" fill="#E9B312" fill-rule="nonzero" mask="url(#mask-2)" transform="translate(6.634666, 136.529249) scale(-1, 1) rotate(2.000000) translate(-6.634666, -136.529249) "></path>
            </g>
            <g id="cat-face" transform="translate(0.000000, 158.333333)" fill="#000000">
                <path d="M287.802342,0.55715812 C270.48993,3.65798611 263.273068,24.9262821 275.178454,37.7586806 C287.288993,50.8126335 309.393911,45.2382479 313.426698,28.1140491 C317.148478,12.3079594 303.592506,-2.27069979 287.802342,0.55715812 M108.493677,1.39196047 C93.7105386,4.19270833 85.9437939,21.6132479 93.6440281,34.7008547 C102.514286,49.7768429 125.275878,49.1542468 132.947073,33.6267361 C141.35644,16.6025641 127.138173,-2.14075855 108.493677,1.39196047 M193.841686,22.3629808 C192.551756,23.7334402 192.872131,24.5495459 196.528337,29.2068643 L199.956909,33.5743857 L199.093208,35.3047543 C196.902108,39.6919071 191.50445,42.5599626 185.399532,42.5823985 C183.434192,42.5898771 182.638876,43.5985577 183.358314,45.1737447 C183.72178,45.970219 183.927869,46.0347222 186.08993,46.0291132 C192.742857,46.0122863 199.315222,42.792735 201.942857,38.2653579 C202.316628,37.6212607 202.369087,37.6380876 203.125995,38.6252671 C206.61171,43.1741453 210.364403,45.1522436 215.527869,45.1643964 L219.142857,45.1737447 L219.47541,44.2361111 C220.017799,42.7114049 219.009836,41.8990385 216.576112,41.8990385 C212.371897,41.8990385 208.657611,39.8938301 205.865105,36.1171207 C203.7274,33.2256944 203.591569,33.8473558 207.431382,28.9750267 C210.947073,24.5149573 211.283372,23.6081731 209.90445,22.3153045 C208.623888,21.1140491 194.978923,21.1551816 193.841686,22.3629808 M378.113349,32.9358974 C369.600937,34.1708066 356.993911,41.6896368 358.106792,44.8671207 C358.726932,46.6358173 359.950351,46.3450855 363.352693,43.6209936 C372.352225,36.4153312 382.175176,34.4540598 394.522717,37.3978365 C397.748946,38.1672009 398.83185,38.0811966 399.106323,37.0351229 C399.487588,35.5786592 399.001405,34.9803686 396.980796,34.420406 C395.911007,34.125 394.805621,33.8062233 394.52459,33.7136752 C391.625293,32.7592147 382.358782,32.3198451 378.113349,32.9358974 M8.17236534,44.4754274 C2.57611241,45.6663996 0.946135831,46.342281 0.808430913,47.5295139 C0.5470726,49.7787126 1.57189696,49.8862179 7.65433255,48.2446581 C18.5517564,45.3046207 29.7433255,47.7501335 37.5831382,54.7847222 C41.4557377,58.258547 43.6009368,55.7391827 39.8285714,52.1485043 C31.9400468,44.6390224 20.464637,41.857906 8.17236534,44.4754274 M20.1592506,60.8816774 C13.8238876,61.8567041 3.85480094,67.7143429 3.85480094,70.4618056 C3.85480094,72.7605502 5.65807963,72.7988782 8.28571429,70.5562233 C16.2576112,63.7534722 26.4871194,62.3680556 36.7081967,66.7084669 C39.5803279,67.9284188 40.1470726,67.9770299 40.9676815,67.0721154 C43.8379391,63.9067842 29.0641686,59.5112179 20.1592506,60.8816774 M368.080562,51.6418269 C360.875878,53.0160256 358.395316,54.4023771 359.359251,56.5132212 C359.865105,57.6219284 360.717564,57.5667735 365.162529,56.1411592 C374.762529,53.0618323 385.886651,55.7466613 393.585948,63.0009348 C395.158782,64.4845085 397.280562,64.0956197 397.280562,62.3241186 C397.280562,60.0496795 388.019672,53.8919605 382.020609,52.177484 C378.764403,51.2463942 371.595316,50.9715545 368.080562,51.6418269" id="path0"></path>
            </g>
            <g id="Group-2" transform="translate(283.333333, 167.708333)" fill="#FFFFFF" fill-rule="nonzero">
                <ellipse id="Oval" cx="4.13602941" cy="4.21875" rx="4.13602941" ry="4.21875"></ellipse>
                <ellipse id="Oval" cx="13.7867647" cy="7.5" rx="1.83823529" ry="1.875"></ellipse>
            </g>
            <g id="Group-2" transform="translate(105.208333, 167.708333)" fill="#FFFFFF" fill-rule="nonzero">
                <ellipse id="Oval" cx="4.13602941" cy="4.21875" rx="4.13602941" ry="4.21875"></ellipse>
                <ellipse id="Oval" cx="13.7867647" cy="7.5" rx="1.83823529" ry="1.875"></ellipse>
            </g>
        </g>
    </g>
</svg>