<?xml version="1.0" encoding="UTF-8"?>
<svg width="400px" height="400px" viewBox="0 0 400 400" version="1.1" xmlns="http://www.w3.org/2000/svg" xmlns:xlink="http://www.w3.org/1999/xlink">
    <!-- Generator: Sketch 51.3 (57544) - http://www.bohemiancoding.com/sketch -->
    <title>projects/lasercat/logo</title>
    <desc>Created with Sketch.</desc>
    <defs>
        <path d="M173.912807,0.882833339 C329.161626,-11.8210932 361.786186,115.726593 352.852878,181.055413 C343.91957,246.384232 228.793087,253.271028 131.087709,253.271028 C33.3823322,253.271028 -7.33401671,182.527853 1.07457927,144.967413 C9.48317524,107.406974 18.6639892,13.5867598 173.912807,0.882833339 Z" id="path-1"></path>
    </defs>
    <g id="projects/lasercat/logo" stroke="none" stroke-width="1" fill="none" fill-rule="evenodd">
        <g id="head-container" transform="translate(0.000000, 54.000000)">
            <g id="head-group">
                <g id="right-ear" transform="translate(271.028037, 0.000000)" fill-rule="nonzero" stroke="#000000" stroke-width="4">
                    <path d="M89.144637,118.138301 C95.1020411,54.8510614 90.4051703,17.1197497 75.0540245,4.94436614 C59.7028788,-7.23101742 34.9612486,6.48257505 0.82913402,46.0851436 L89.144637,118.138301 Z" id="right-ear-outer" fill="#FFE07B"></path>
                    <path d="M76.4296972,99.6757815 C80.699579,51.6766047 77.0112274,24.8057664 65.3646425,19.0632667 C53.7180576,13.3207669 35.947797,27.853103 12.0538606,62.6602747 L76.4296972,99.6757815 Z" id="right-ear-inner" fill="#FD9BAF"></path>
                </g>
                <g id="left-ear" transform="translate(83.644860, 68.691589) scale(-1, 1) translate(-83.644860, -68.691589) translate(37.383178, 9.345794)" fill-rule="nonzero" stroke="#000000" stroke-width="4">
                    <path d="M89.144637,118.138301 C95.1020411,54.8510614 90.4051703,17.1197497 75.0540245,4.94436614 C59.7028788,-7.23101742 34.9612486,6.48257505 0.82913402,46.0851436 L89.144637,118.138301 Z" id="left-ear-outer" fill="#FFE07B"></path>
                    <path d="M76.4296972,99.6757815 C80.699579,51.6766047 77.0112274,24.8057664 65.3646425,19.0632667 C53.7180576,13.3207669 35.947797,27.853103 12.0538606,62.6602747 L76.4296972,99.6757815 Z" id="left-ear-inner" fill="#FD9BAF"></path>
                </g>
                <g id="head" transform="translate(24.299065, 39.252336)">
                    <mask id="mask-2" fill="white">
                        <use xlink:href="#path-1"></use>
                    </mask>
                    <g id="head-mask" fill-rule="nonzero" fill="#FFE07B">
                        <use xlink:href="#path-1"></use>
                        <path stroke="#0B0F12" stroke-width="4" d="M173.749694,-1.11050404 C245.077782,-6.9472428 296.011528,16.0840532 326.599207,60.5737603 C350.644548,95.5476534 360.135003,142.563614 354.834437,181.326378 C350.562359,212.567866 323.048187,232.495175 275.716988,243.608576 C239.011337,252.22709 193.943174,255.271028 131.087709,255.271028 C85.7389589,255.271028 49.2053883,240.135942 24.8409715,214.584581 C4.15677821,192.89273 -5.50879227,165.219789 -0.877112085,144.530491 C-0.319618425,142.040218 1.76570785,131.938457 1.88088084,131.394647 C3.14825577,125.410514 4.3033964,120.473225 5.65376918,115.475218 C9.2403393,102.200587 13.7869716,90.2935891 20.0220145,78.984011 C31.2955402,58.5352633 47.4376473,41.4324061 69.8415441,28.0922322 C96.1357388,12.4356197 130.378618,2.4385275 173.749694,-1.11050404 Z" fill-rule="evenodd"></path>
                    </g>
                    <g id="head-mark" mask="url(#mask-2)" fill="#E9B312" fill-rule="nonzero" stroke="#000000">
                        <g transform="translate(-2.803738, -11.214953)">
                            <path d="M348.173914,108.411215 C339.733984,110.491849 335.514019,112.921434 335.514019,115.699968 C335.514019,118.478502 341.095854,120.949818 352.259524,123.113915 L348.173914,108.411215 Z" id="head-right-mark-1" transform="translate(343.886771, 115.762565) rotate(-9.000000) translate(-343.886771, -115.762565) "></path>
                            <path d="M353.893733,132.994981 C345.453803,135.075615 341.233838,137.5052 341.233838,140.283734 C341.233838,143.062268 346.815673,145.533583 357.979343,147.697681 L353.893733,132.994981 Z" id="head-right-mark-2" transform="translate(349.606591, 140.346331) rotate(2.000000) translate(-349.606591, -140.346331) "></path>
                            <path d="M147.560162,7.7782268 C139.120231,9.85886134 134.900266,12.2884456 134.900266,15.0669797 C134.900266,17.8455138 140.482102,20.3168296 151.645772,22.480927 L147.560162,7.7782268 Z" id="head-top-mark-1" transform="translate(143.273019, 15.129577) scale(-1, 1) rotate(-80.000000) translate(-143.273019, -15.129577) "></path>
                            <path d="M180.270442,5.90906792 C171.830512,7.98970246 167.610547,10.4192868 167.610547,13.1978209 C167.610547,15.9763549 173.192382,18.4476707 184.356052,20.6117681 L180.270442,5.90906792 Z" id="head-top-mark-2" transform="translate(175.983299, 13.260418) scale(-1, 1) rotate(-80.000000) translate(-175.983299, -13.260418) "></path>
                            <path d="M208.307825,3.1053296 C199.867895,5.18596414 195.64793,7.61554845 195.64793,10.3940825 C195.64793,13.1726166 201.229765,15.6439324 212.393435,17.8080298 L208.307825,3.1053296 Z" id="head-top-mark-3" transform="translate(204.020683, 10.456680) scale(-1, 1) rotate(-101.000000) translate(-204.020683, -10.456680) "></path>
                            <path d="M20.1365306,112.149533 C11.6966006,114.230167 7.47663551,116.659752 7.47663551,119.438286 C7.47663551,122.21682 13.0584706,124.688135 24.2221408,126.852233 L20.1365306,112.149533 Z" id="head-left-mark-1" transform="translate(15.849388, 119.500883) scale(-1, 1) rotate(-9.000000) translate(-15.849388, -119.500883) "></path>
                            <path d="M13.7068172,140.471616 C5.26688709,142.552251 1.04692204,144.981835 1.04692204,147.760369 C1.04692204,150.538903 6.62875714,153.010219 17.7924273,155.174316 L13.7068172,140.471616 Z" id="head-left-mark-1" transform="translate(9.419675, 147.822966) scale(-1, 1) rotate(2.000000) translate(-9.419675, -147.822966) "></path>
                        </g>
                    </g>
                    <g id="head-face" mask="url(#mask-2)" fill-rule="nonzero">
                        <g transform="translate(159.813084, 142.056075)">
                            <path d="M32.4093593,20.4543532 C18.2114246,20.4543532 18.2114246,11.2149533 16.2046797,11.2149533 C14.1979347,11.2149533 14.1979347,20.4543532 0,20.4543532" id="head-face-mouth" stroke="#000000" stroke-width="4" fill="none" stroke-linecap="round" stroke-linejoin="round"></path>
                            <path d="M10.4936603,-1.00438868e-15 L21.5577503,-1.77635684e-15 C22.6623198,-1.97926296e-15 23.5577503,0.8954305 23.5577503,2 C23.5577503,2.31384271 23.4838911,2.62328057 23.3421456,2.9032903 L18.6615454,12.1495327 L13.3898652,12.1495327 L8.70926499,2.9032903 C8.21039153,1.91779598 8.60487568,0.714478141 9.59037,0.215604685 C9.87037973,0.0738591473 10.1798176,5.76519708e-17 10.4936603,0 Z" id="head-face-nose" stroke="none" fill="#000000"></path>
                        </g>
                    </g>
                    <path d="M261.896262,119.248598 C244.624299,122.348598 237.424299,143.611215 249.301869,156.440187 C261.384112,169.490654 283.437383,163.917757 287.460748,146.798131 C291.173832,130.996262 277.649533,116.421495 261.896262,119.248598" id="head-right-eye" fill="#000000" mask="url(#mask-2)"></path>
                    <path d="M83.0065421,120.083178 C68.2579439,122.883178 60.5093458,140.299065 68.1915888,153.383178 C77.0411215,168.45514 99.7495327,167.83271 107.402804,152.309346 C115.792523,135.28972 101.607477,116.551402 83.0065421,120.083178" id="head-left-eye" fill="#000000" mask="url(#mask-2)"></path>
                    <g id="head-left-glare" mask="url(#mask-2)" fill="#FFFFFF" fill-rule="nonzero">
                        <g transform="translate(79.439252, 128.037383)">
                            <circle id="head-left-glare-2" cx="4.20560748" cy="4.20560748" r="4.20560748"></circle>
                            <circle id="head-left-glare-1" cx="14.0186916" cy="7.47663551" r="1.86915888"></circle>
                        </g>
                    </g>
                    <g id="head-right-glare" mask="url(#mask-2)" fill="#FFFFFF" fill-rule="nonzero">
                        <g transform="translate(257.009346, 128.037383)">
                            <circle id="head-right-glare-2" cx="4.20560748" cy="4.20560748" r="4.20560748"></circle>
                            <circle id="head-right-glare-1" cx="14.0186916" cy="7.47663551" r="1.86915888"></circle>
                        </g>
                    </g>
                </g>
                <g id="whisker" transform="translate(0.000000, 189.719626)" fill="#000000">
                    <g id="whisker-right" transform="translate(357.943925, 0.000000)">
                        <path d="M10.211215,19.8523364 C3.02336449,21.2261682 0.548598131,22.6121495 1.51028037,24.7224299 C2.01495327,25.8308411 2.86542056,25.7757009 7.3,24.3504673 C16.8775701,21.2719626 27.9757009,23.9560748 35.6570093,31.2084112 C37.2261682,32.6915888 39.3429907,32.3028037 39.3429907,30.5317757 C39.3429907,28.2579439 30.1037383,22.1018692 24.1186916,20.3878505 C20.8700935,19.4570093 13.717757,19.182243 10.211215,19.8523364" id="whisker-right-2"></path>
                        <path d="M20.2205607,1.15140187 C11.7280374,2.38598131 -0.84953271,9.90280374 0.260747664,13.0794393 C0.879439252,14.8476636 2.1,14.5570093 5.49439252,11.8336449 C14.4728972,4.62990654 24.2728972,2.66915888 36.5915888,5.61214953 C39.8102804,6.38130841 40.8906542,6.2953271 41.164486,5.24953271 C41.5448598,3.79345794 41.0598131,3.1953271 39.0439252,2.63551402 C37.9766355,2.34018692 36.8738318,2.02149533 36.5934579,1.92897196 C33.7009346,0.974766355 24.4560748,0.535514019 20.2205607,1.15140187" id="whisker-right-1"></path>
                    </g>
                    <g id="whisker-left" transform="translate(0.000000, 11.214953)">
                        <path d="M8.15327103,1.4728972 C2.57009346,2.6635514 0.943925234,3.33925234 0.806542056,4.52616822 C0.545794393,6.77476636 1.5682243,6.88224299 7.6364486,5.2411215 C18.5084112,2.30186916 29.6738318,4.74672897 37.4953271,11.7794393 C41.3588785,15.2523364 43.4990654,12.7336449 39.735514,9.14392523 C31.8654206,1.6364486 20.4168224,-1.14392523 8.15327103,1.4728972" id="path0-path"></path>
                        <path d="M20.1121495,17.8747664 C13.7915888,18.8495327 3.84579439,24.7056075 3.84579439,27.4523364 C3.84579439,29.7504673 5.64485981,29.788785 8.26635514,27.546729 C16.2196262,20.7457944 26.4252336,19.3607477 36.6224299,23.7 C39.4878505,24.9196262 40.053271,24.9682243 40.8719626,24.0635514 C43.735514,20.8990654 28.9962617,16.5046729 20.1121495,17.8747664" id="path0-path"></path>
                    </g>
                </g>
            </g>
        </g>
    </g>
</svg>