<?xml version="1.0" encoding="UTF-8"?>
<svg width="400px" height="400px" viewBox="0 0 400 400" version="1.1" xmlns="http://www.w3.org/2000/svg" xmlns:xlink="http://www.w3.org/1999/xlink">
    <!-- Generator: Sketch 51.3 (57544) - http://www.bohemiancoding.com/sketch -->
    <title>projects/picturepalette/logo</title>
    <desc>Created with Sketch.</desc>
    <defs></defs>
    <g id="projects/picturepalette/logo" stroke="none" stroke-width="1" fill="none" fill-rule="evenodd">
        <g id="swatch" fill-rule="nonzero">
            <path d="M127.927022,0 L127.927022,335.447125 C127.927022,370.662768 99.378655,399.20809 64.1630113,399.20809 C28.9473684,399.20809 0.39900117,370.662768 0.39900117,335.447125 L0.39900117,0 L127.927022,0 Z" id="Shape" fill="#AFB4C8"></path>
            <path d="M127.927022,0 L127.927022,335.447125 C127.927022,370.662768 99.378655,399.20809 64.1630113,399.20809 C64.1630113,368.801779 64.1630113,0 64.1630113,0 L127.927022,0 Z" id="Shape" fill="#CDD2E1"></path>
            <path d="M86.9060671,335.447125 C86.9060671,348.004995 76.7239283,358.187135 64.1630113,358.187135 C51.6051415,358.187135 41.4230019,348.004995 41.4230019,335.447125 C41.4230019,322.886208 51.6051415,312.704069 64.1630113,312.704069 C76.7239283,312.704069 86.9060671,322.886208 86.9060671,335.447125 Z" id="Shape" fill="#AFB4C8"></path>
            <path d="M64.1630113,312.704069 C76.7239283,312.704069 86.9060671,322.886208 86.9060671,335.447125 C86.9060671,348.004995 76.7239283,358.187135 64.1630113,358.187135 C64.1630113,335.447125 64.1630113,335.447125 64.1630113,312.704069 Z" id="Shape" fill="#9196AA"></path>
            <polygon id="Shape" fill="#FDE0D5" points="0.39900117 271.683114 0.39900117 0 127.927022 0 127.927022 271.683114"></polygon>
            <path d="M287.107091,76.8213942 L119.383528,367.327607 C101.775707,397.825293 62.7802144,408.275463 32.2825294,390.667641 C1.78484366,373.05982 -8.66532632,334.061282 8.94249513,303.563596 L176.666058,13.0604288 L287.107091,76.8213942 Z" id="Shape" fill="#BEC3D2"></path>
            <path d="M287.107091,76.8213942 L119.383528,367.327607 C101.775707,397.825293 62.7802144,408.275463 32.2825294,390.667641 C47.4872078,364.333577 231.886574,44.9409115 231.886574,44.9409115 L287.107091,76.8213942 Z" id="Shape" fill="#CDD2E1"></path>
            <path d="M75.5269248,315.752924 C64.6472951,309.475512 50.7401318,313.200536 44.4596733,324.07712 C38.1822612,334.953704 41.9072858,348.863913 52.783869,355.141326 C63.660453,361.421784 77.5676172,357.696759 83.8480749,346.820175 C90.1285333,335.943591 86.4035088,322.033382 75.5269248,315.752924 Z" id="Shape" fill="#AFB4C8"></path>
            <path d="M75.5330168,315.752924 C86.4126464,322.033382 90.1376702,335.940546 83.8572125,346.81713 C77.5798004,357.693714 63.6695906,361.421784 52.7930066,355.141326 C64.1630113,335.447125 64.1630113,335.447125 75.5330168,315.752924 Z" id="Shape" fill="#9196AA"></path>
            <polygon id="Shape" fill="#DA96B0" points="40.8229778 248.346126 176.663011 13.0665201 287.100999 76.830531 151.257919 312.107091"></polygon>
            <path d="M386.549708,222.944079 L96.043494,390.667641 C65.5488546,408.275463 26.5503166,397.825293 8.94249513,367.327607 C-8.66532632,336.829922 1.78484366,297.83443 32.2825294,280.226608 L322.785697,112.503046 L386.549708,222.944079 Z" id="Shape" fill="#CDD2E1"></path>
            <path d="M386.549708,222.944079 L96.043494,390.667641 C65.5488546,408.275463 26.5503166,397.825293 8.94249513,367.327607 C35.2765598,352.122929 354.669225,167.723563 354.669225,167.723563 L386.549708,222.944079 Z" id="Shape" fill="#CDD2E1"></path>
            <path d="M83.8572125,324.067983 C77.5767548,313.191399 63.666545,309.463329 52.789961,315.743786 C41.913377,322.024245 38.1883524,335.931408 44.4688109,346.807992 C50.746223,357.684576 64.6564327,361.412646 75.5330168,355.132188 C86.4096,348.85173 90.1346246,334.944566 83.8572125,324.067983 Z" id="Shape" fill="#AFB4C8"></path>
            <path d="M83.8572125,324.07712 C90.1376702,334.953704 86.4126464,348.860867 75.5330168,355.141326 C64.6564327,361.421784 50.7492694,357.693714 44.4688109,346.81713 C64.1630113,335.447125 64.1630113,335.447125 83.8572125,324.07712 Z" id="Shape" fill="#9196AA"></path>
            <polygon id="Shape" fill="#82535C" points="87.5 248.340034 322.77656 112.496954 386.54057 222.934941 151.264011 358.778021"></polygon>
            <path d="M399.610136,399.20809 L64.1630113,399.20809 C28.9473684,399.20809 0.39900117,370.662768 0.39900117,335.447125 C0.39900117,300.231481 28.9473684,271.683114 64.1630113,271.683114 L399.610136,271.683114 L399.610136,399.20809 Z" id="Shape" fill="#DCE1EB"></path>
            <path d="M86.9060671,335.447125 C86.9060671,348.004995 76.7239283,358.187135 64.1630113,358.187135 C51.6051415,358.187135 41.4230019,348.004995 41.4230019,335.447125 C41.4230019,322.886208 51.6051415,312.704069 64.1630113,312.704069 C76.7239283,312.704069 86.9060671,322.886208 86.9060671,335.447125 Z" id="Shape" fill="#AFB4C8"></path>
            <polygon id="Shape" fill="#000000" points="127.927022 271.683114 399.610136 271.683114 399.610136 399.20809 127.927022 399.20809"></polygon>
        </g>
    </g>
</svg>