<?xml version="1.0" encoding="UTF-8"?>
<svg width="400px" height="400px" viewBox="0 0 400 400" version="1.1" xmlns="http://www.w3.org/2000/svg" xmlns:xlink="http://www.w3.org/1999/xlink">
    <!-- Generator: Sketch 51.3 (57544) - http://www.bohemiancoding.com/sketch -->
    <title>projects/recapreddit/logo</title>
    <desc>Created with Sketch.</desc>
    <defs>
        <circle id="path-1" cx="200" cy="200" r="200"></circle>
    </defs>
    <g id="projects/recapreddit/logo" stroke="none" stroke-width="1" fill="none" fill-rule="evenodd">
        <g id="icon">
            <g id="Mask" fill="#FF4300" fill-rule="nonzero">
                <circle id="path-1" cx="200" cy="200" r="200"></circle>
            </g>
            <g id="Group-2-Clipped">
                <mask id="mask-2" fill="white">
                    <use xlink:href="#path-1"></use>
                </mask>
                <g id="path-1"></g>
                <g id="Group-2" mask="url(#mask-2)">
                    <g transform="translate(62.162162, 86.486486)" id="Group">
                        <g>
                            <g transform="translate(134.234234, 0.000000)">
                                <polyline id="Path-2" stroke="#FFFFFF" stroke-width="15" stroke-linecap="round" stroke-linejoin="round" points="0 58.6714165 9.62083387 10.7512523 44.2233841 16.1525381"></polyline>
                                <circle id="Oval" fill="#FFFFFF" fill-rule="nonzero" cx="44.1441441" cy="15.3153153" r="15.3153153"></circle>
                            </g>
                            <g id="Group-4" transform="translate(0.000000, 51.351351)" fill="#FFFFFF" fill-rule="nonzero">
                                <path d="M53.3715995,23.1228017 C75.2490954,8.80666359 105.026077,0 137.837838,0 C170.649599,0 200.42658,8.80666359 222.304077,23.1228017 C227.697333,19.8915436 234.110176,18.018018 240.990991,18.018018 C260.146814,18.018018 275.675676,32.5385126 275.675676,50.4504505 C275.675676,62.0829997 269.126233,72.2851763 259.287318,78.0086983 C259.401597,79.4734633 259.459459,80.948368 259.459459,82.4324324 C259.459459,127.958608 205.007605,164.864865 137.837838,164.864865 C70.668071,164.864865 16.2162162,127.958608 16.2162162,82.4324324 C16.2162162,80.948368 16.2740786,79.4734633 16.3883576,78.0086983 C6.5494419,72.2851763 0,62.0829997 0,50.4504505 C0,32.5385126 15.5288623,18.018018 34.6846847,18.018018 C41.5655002,18.018018 47.9783424,19.8915436 53.3715995,23.1228017 Z M178.484637,86.2971214 C179.425205,85.7936408 180.195754,85.0230917 180.699235,84.0825237 C182.108109,81.4505612 181.1166,78.1748158 178.484637,76.7659417 L118.767208,44.7995533 C117.982521,44.3795147 117.106254,44.1597378 116.216216,44.1597378 C113.230894,44.1597378 110.810811,46.5798203 110.810811,49.5651432 L110.810811,113.49792 C110.810811,114.387958 111.030587,115.264224 111.450626,116.048912 C112.859501,118.680875 116.135246,119.672384 118.767208,118.26351 L178.484637,86.2971214 Z" id="Combined-Shape"></path>
                            </g>
                        </g>
                    </g>
                </g>
            </g>
        </g>
    </g>
</svg>