<?xml version="1.0" encoding="UTF-8"?>
<svg width="400px" height="400px" viewBox="0 0 400 400" version="1.1" xmlns="http://www.w3.org/2000/svg" xmlns:xlink="http://www.w3.org/1999/xlink">
    <!-- Generator: Sketch 51.3 (57544) - http://www.bohemiancoding.com/sketch -->
    <title>projects/game-deals/logo</title>
    <desc>Created with Sketch.</desc>
    <defs></defs>
    <g id="projects/game-deals/logo" stroke="none" stroke-width="1" fill="none" fill-rule="evenodd">
        <rect id="Rectangle-2" stroke="#00022E" stroke-width="9" fill="#FFFFFF" fill-rule="nonzero" x="4.5" y="4.5" width="391" height="391" rx="107"></rect>
        <g id="Group" transform="translate(50.000000, 50.000000)" fill-rule="nonzero">
            <path d="M256.007018,43.8750163 L150,149.882034 L256.124984,256.007018 C228.975677,283.186348 191.451358,300 150,300 C67.1572875,300 0,232.842712 0,150 C0,67.1572875 67.1572875,0 150,0 C191.391355,0 228.867032,16.7650096 256.007018,43.8750163 Z M150,69.75 C159.526912,69.75 167.25,62.0269119 167.25,52.5 C167.25,42.9730881 159.526912,35.25 150,35.25 C140.473088,35.25 132.75,42.9730881 132.75,52.5 C132.75,62.0269119 140.473088,69.75 150,69.75 Z" id="Combined-Shape" fill="#00022E"></path>
            <g id="sale-(2)" transform="translate(198.750000, 97.500000)">
                <path d="M96.3683033,54.2447643 C95.9437543,53.3741957 95.9437543,52.3757784 96.3683033,51.5054164 L100.303832,43.4369079 C102.494999,38.9444433 100.758882,33.5898783 96.3514038,31.2462621 L88.4354192,27.0369647 C87.5813749,26.5829885 86.9958682,25.7750017 86.8287278,24.8209906 L85.2805665,15.9750633 C84.4184846,11.0498962 79.8725125,7.74028966 74.9331113,8.44066883 L66.0602426,9.69850108 C65.1025342,9.83399171 64.1555425,9.52542005 63.4608072,8.85189116 L57.0202335,2.60775578 C53.4340307,-0.869148656 47.8159693,-0.869355197 44.2299726,2.60775578 L37.7891928,8.85251078 C37.0942514,9.52624622 36.1472597,9.83419825 35.1897574,9.6991207 L26.3168887,8.44128845 C21.3758387,7.7404962 16.8315154,11.0505158 15.9694335,15.975683 L14.4212722,24.8211972 C14.2541318,25.7754147 13.6686251,26.583195 12.8147869,27.0373778 L4.89880229,31.2466752 C0.491323847,33.5900848 -1.24479316,38.9450629 0.946374459,43.4375275 L4.88169667,51.5058294 C5.3062457,52.3763981 5.3062457,53.3748153 4.88169667,54.2451774 L0.946168367,62.3134794 C-1.24499926,66.8059439 0.491117755,72.1605089 4.8985962,74.5041251 L12.8145808,78.7134225 C13.6686251,79.1673987 14.2541318,79.9753856 14.4212722,80.9293966 L15.9694335,89.7753239 C16.7542309,94.2589072 20.590423,97.4032813 24.9993441,97.4028682 C25.4335795,97.4028682 25.8742036,97.3723002 26.3170948,97.3095119 L35.1899635,96.0516796 C36.1468476,95.9155694 37.0944575,96.2247606 37.7893989,96.8982895 L44.2299726,103.142425 C46.0233831,104.881084 48.3237794,105.750207 50.625,105.75 C52.9256023,105.749793 55.2274412,104.880671 57.0200274,103.142425 L63.4608072,96.8982895 C64.1557486,96.2247606 65.1029463,95.9170151 66.0602426,96.0516796 L74.9331113,97.3095119 C79.8747795,98.0100976 84.4184846,94.7002845 85.2805665,89.7751174 L86.8289339,80.9296031 C86.9960743,79.9753856 87.581581,79.1676053 88.4354192,78.7134225 L96.3514038,74.5041251 C100.758882,72.1607155 102.494999,66.8057374 100.303832,62.3132728 L96.3683033,54.2447643 Z M38.4530144,25.4288396 C44.6052657,25.4288396 49.6106163,30.4450911 49.6106163,36.6107411 C49.6106163,42.776391 44.6052657,47.7926426 38.4530144,47.7926426 C32.3007631,47.7926426 27.2954124,42.776391 27.2954124,36.6107411 C27.2954124,30.4450911 32.3007631,25.4288396 38.4530144,25.4288396 Z M32.6939862,75.1576196 C32.0998236,75.7530761 31.3210028,76.0509077 30.5423882,76.0509077 C29.7637735,76.0509077 28.9847466,75.7532827 28.3907902,75.1576196 C27.2024651,73.9667065 27.2024651,72.0357584 28.3907902,70.8448453 L68.5558077,30.5923546 C69.7439268,29.4014415 71.6708847,29.4014415 72.8592098,30.5923546 C74.0475349,31.7832677 74.0475349,33.7142157 72.8592098,34.9051288 L32.6939862,75.1576196 Z M62.7965734,80.3215476 C56.6443221,80.3215476 51.6389715,75.3052961 51.6389715,69.1396461 C51.6389715,62.9739962 56.6443221,57.9577447 62.7965734,57.9577447 C68.9488247,57.9577447 73.9541754,62.9739962 73.9541754,69.1396461 C73.9541754,75.3052961 68.9488247,80.3215476 62.7965734,80.3215476 Z" id="Shape" fill="#00022E"></path>
                <path d="M63.0001067,64.5 C60.1052837,64.5 57.75,66.8551183 57.75,69.75 C57.75,72.6448817 60.1050704,75 63.0001067,75 C65.8949296,75 68.25,72.6448817 68.25,69.75 C68.25,66.8551183 65.8949296,64.5 63.0001067,64.5 Z" id="Shape" fill="#000000"></path>
                <path d="M38.9998933,31.5 C36.1050704,31.5 33.75,33.8550704 33.75,36.7498933 C33.75,39.6447163 36.1050704,42 38.9998933,42 C41.8947163,42 44.25,39.6449296 44.25,36.7498933 C44.2497867,33.8552837 41.8947163,31.5 38.9998933,31.5 Z" id="Shape" fill="#000000"></path>
            </g>
        </g>
    </g>
</svg>