<?xml version="1.0" encoding="UTF-8"?>
<svg width="400px" height="400px" viewBox="0 0 400 400" version="1.1" xmlns="http://www.w3.org/2000/svg" xmlns:xlink="http://www.w3.org/1999/xlink">
    <!-- Generator: Sketch 51.3 (57544) - http://www.bohemiancoding.com/sketch -->
    <title>projects/webskills/logo</title>
    <desc>Created with Sketch.</desc>
    <defs></defs>
    <g id="projects/webskills/logo" stroke="none" stroke-width="1" fill="none" fill-rule="evenodd">
        <g id="icon" transform="translate(0.000000, 54.000000)" fill-rule="nonzero">
            <polygon id="Shape" fill="#49CB5C" points="397.979797 118.806332 365.711166 118.806332 365.711166 64.8034536 333.442534 64.8034536 333.442534 32.4017268 236.636637 32.4017268 236.636637 0 129.074529 0 129.074529 32.4017268 64.5372645 32.4017268 64.5372645 64.8034536 32.2686323 64.8034536 32.2686323 118.806332 0 118.806332 0 216.011511 32.2686323 216.011511 32.2686323 259.213814 118.318318 259.213814 118.318318 291.615541 290.41769 291.615541 290.41769 248.413239 365.711166 248.413239 365.711166 216.011511 397.979797 216.011511"></polygon>
            <g id="Group" transform="translate(32.268632, 0.000000)" fill="#028F5D">
                <polygon id="Shape" points="225.880426 248.413239 258.149058 248.413239 258.149058 291.615541 225.880426 291.615541"></polygon>
                <polygon id="Shape" points="301.173901 216.011511 333.442534 216.011511 333.442534 248.413239 301.173901 248.413239"></polygon>
                <polygon id="Shape" points="172.099372 0 204.368004 0 204.368004 32.4017268 172.099372 32.4017268"></polygon>
                <polygon id="Shape" points="333.442534 118.806332 367.742534 118.806332 367.742534 216.011511 333.442534 216.011511"></polygon>
                <polygon id="Shape" points="268.905269 32.4017268 301.173901 32.4017268 301.173901 64.8034536 268.905269 64.8034536"></polygon>
                <polygon id="Shape" points="301.173901 64.8034536 333.442534 64.8034536 333.442534 118.806332 301.173901 118.806332"></polygon>
                <path d="M96.8058968,259.213814 L75.2934752,259.213814 L75.2934752,194.410361 C75.2934752,188.445367 80.1091948,183.609785 86.0496861,183.609785 L193.611793,183.609785 C199.552285,183.609785 204.368004,188.445367 204.368004,194.410361 L204.368004,237.612664 L182.855583,237.612664 L182.855583,205.210936 L96.8058968,205.210936 L96.8058968,259.213814 Z" id="Shape"></path>
                <polygon id="Shape" points="0 205.210936 43.024843 205.210936 43.024843 226.812088 0 226.812088"></polygon>
                <path d="M75.2934752,162.008634 L32.2686323,162.008634 C26.3281411,162.008634 21.5124215,157.173052 21.5124215,151.208059 L21.5124215,129.606907 L0,129.606907 L0,108.005756 L32.2686323,108.005756 C38.2091234,108.005756 43.024843,112.841338 43.024843,118.806332 L43.024843,140.407483 L75.2934752,140.407483 L75.2934752,162.008634 Z" id="Shape"></path>
                <path d="M150.586951,194.410361 L129.074529,194.410361 L129.074529,129.606907 C129.074529,123.641914 133.890249,118.806332 139.83074,118.806332 L193.611793,118.806332 L193.611793,75.6040291 C193.611793,69.639036 198.427513,64.8034536 204.368004,64.8034536 L236.636637,64.8034536 L236.636637,86.4046048 L215.124215,86.4046048 L215.124215,129.606907 C215.124215,135.5719 210.308495,140.407483 204.368004,140.407483 L150.586951,140.407483 L150.586951,194.410361 Z" id="Shape"></path>
                <path d="M150.586951,97.2051804 L75.2934752,97.2051804 C69.3529841,97.2051804 64.5372645,92.369598 64.5372645,86.4046048 L64.5372645,32.4017268 L86.0496861,32.4017268 L86.0496861,75.6040291 L139.83074,75.6040291 L139.83074,54.002878 L161.343162,54.002878 L161.343162,86.4046048 C161.343162,92.369598 156.527442,97.2051804 150.586951,97.2051804 Z" id="Shape"></path>
                <path d="M301.173901,205.210936 L247.392848,205.210936 C241.452356,205.210936 236.636637,200.375354 236.636637,194.410361 L236.636637,118.806332 C236.636637,112.841338 241.452356,108.005756 247.392848,108.005756 L333.442534,108.005756 L333.442534,129.606907 L258.149058,129.606907 L258.149058,183.609785 L290.41769,183.609785 L290.41769,162.008634 L311.930113,162.008634 L311.930113,194.410361 C311.930113,200.375354 307.114392,205.210936 301.173901,205.210936 Z" id="Shape"></path>
            </g>
        </g>
    </g>
</svg>