<?xml version="1.0" encoding="UTF-8"?>
<svg width="400px" height="400px" viewBox="0 0 400 400" version="1.1" xmlns="http://www.w3.org/2000/svg" xmlns:xlink="http://www.w3.org/1999/xlink">
    <!-- Generator: Sketch 51.3 (57544) - http://www.bohemiancoding.com/sketch -->
    <title>projects/ideamap/logo</title>
    <desc>Created with Sketch.</desc>
    <defs></defs>
    <g id="projects/ideamap/logo" stroke="none" stroke-width="1" fill="none" fill-rule="evenodd">
        <g id="logo" transform="translate(0.000000, 1.000000)" fill-rule="nonzero">
            <rect id="Rectangle-6" fill="#1E1926" x="0" y="0" width="400" height="400" rx="108"></rect>
            <g id="Combined-Shape" transform="translate(69.000000, 69.000000)" fill="#FDFDFD">
                <path d="M261.258505,99.1917169 C264.375244,129.186079 253.87675,159.664221 238.621127,189.174803 C223.420183,218.685385 203.407428,247.28216 176.450357,256.904009 C149.493287,266.579609 115.48254,257.334034 83.3309023,245.024521 C51.1792643,232.661253 20.832055,217.341551 8.03701542,193.15255 C-4.81270388,168.963548 -0.110253277,136.012753 9.51336628,107.630991 C19.1369858,79.1954754 33.6817743,55.4365005 54.1866454,36.7840928 C74.636837,18.0779314 100.992432,4.53209038 130.410087,0.984370291 C159.827742,-2.61710349 192.252778,3.83329704 216.858624,21.7869117 C241.409789,39.7405263 258.141765,69.1973548 261.258505,99.1917169 Z M46.8698486,126.852365 C43.6974811,146.720358 49.3923382,168.592336 62.1132577,184.400864 C74.8694154,200.21883 94.6516355,209.973347 114.232012,212.73074 C133.803104,215.522775 153.127828,211.342889 169.538147,202.817971 C185.974419,194.337132 199.451763,181.536463 210.56543,164.872443 C221.669811,148.243064 230.391946,127.819616 226.289101,110.012698 C222.221496,92.2152197 205.310341,77.1035532 186.72565,63.5856703 C168.131673,50.1024285 147.810351,38.2728139 128.766514,39.8546794 C109.731963,41.4019038 91.8951345,56.3763713 77.0014481,72.7704073 C62.0725229,89.155004 50.0422157,106.984371 46.8698486,126.852365 Z" id="path-1"></path>
            </g>
        </g>
    </g>
</svg>