<?xml version="1.0" encoding="UTF-8"?>
<svg width="400px" height="400px" viewBox="0 0 400 400" version="1.1" xmlns="http://www.w3.org/2000/svg" xmlns:xlink="http://www.w3.org/1999/xlink">
    <!-- Generator: Sketch 51.3 (57544) - http://www.bohemiancoding.com/sketch -->
    <title>projects/ideanote/logo</title>
    <desc>Created with Sketch.</desc>
    <defs></defs>
    <g id="projects/ideanote/logo" stroke="none" stroke-width="1" fill="none" fill-rule="evenodd">
        <path d="M104.543689,0 L295.456311,0 C331.805825,0 344.983819,3.77993528 358.278317,10.8867314 C371.416891,17.8394309 382.160569,28.5831093 389.113269,41.7216828 C396.220065,55.0161812 400,68.1941748 400,104.543689 L400,295.456311 C400,331.805825 396.220065,344.983819 389.113269,358.278317 C382.160569,371.416891 371.416891,382.160569 358.278317,389.113269 C344.983819,396.220065 331.805825,400 295.456311,400 L104.543689,400 C68.1941748,400 55.0161812,396.220065 41.7216828,389.113269 C28.5783148,382.162649 17.8299216,371.418767 10.8737864,358.278317 C3.77993528,344.983819 0,331.805825 0,295.456311 L0,104.543689 C0,68.1941748 3.77993528,55.0161812 10.8867314,41.7216828 C17.8373506,28.5783148 28.5812334,17.8299216 41.7216828,10.8737864 C55.0161812,3.77993528 68.1941748,0 104.543689,0 Z M127.456311,225.475728 L76.828479,246.666667 C71.091287,249.115106 68.3948935,255.726178 70.7831715,261.488673 C72.7249191,266.122977 77.3851133,269.100324 82.1229773,268.711974 C83.2750809,268.608414 84.4530744,268.02589 85.579288,267.546926 L136.194175,246.355987 C141.926329,243.902573 144.616365,237.292935 142.226537,231.533981 C141.074134,228.769563 138.869218,226.577233 136.098248,225.440674 C133.327278,224.304115 130.217969,224.316727 127.456311,225.475728 Z M110.252427,216.10356 C111.417476,216.012945 112.582524,215.728155 113.721683,215.249191 L188.595469,183.572816 C194.329704,181.114347 197.014816,174.496844 194.614887,168.737864 C193.457659,165.974883 191.248511,163.785974 188.474996,162.654225 C185.701481,161.522475 182.591607,161.540925 179.831715,162.705502 L104.957929,194.381877 C99.2257743,196.835291 96.5357381,203.444929 98.9255663,209.203883 C100.812759,213.710447 105.382293,216.493945 110.252427,216.10356 Z M246.822006,227.97411 C245.667239,225.208798 243.459123,223.016951 240.685346,221.882666 C237.91157,220.748381 234.800349,220.764982 232.038835,221.928803 L135.87055,262.472492 C130.138396,264.925906 127.44836,271.535544 129.838188,277.294498 C130.990172,280.062123 133.198042,282.256255 135.972803,283.390943 C138.747564,284.525631 141.86021,284.507226 144.621359,283.339806 L240.802589,242.796117 C246.534743,240.342703 249.22478,233.733064 246.834951,227.97411 L246.822006,227.97411 Z M155.857605,225.760518 C157.012372,228.52583 159.220489,230.717677 161.994265,231.851962 C164.768042,232.986247 167.879262,232.969646 170.640777,231.805825 L244.789644,200.530744 C250.521798,198.077331 253.211835,191.467692 250.822006,185.708738 C249.664779,182.945757 247.45563,180.756848 244.682116,179.625098 C241.908601,178.493349 238.798726,178.511799 236.038835,179.676375 L161.877023,210.938511 C156.144868,213.391925 153.454832,220.001563 155.84466,225.760518 L155.857605,225.760518 Z M120.194175,140.893204 C119.546926,141.838188 118.951456,142.847896 118.537217,144 C116.057924,150.909239 119.635659,158.522058 126.537217,161.022654 C132.608414,163.223301 139.223301,160.699029 142.420712,155.339806 C158.061284,129.171481 186.34245,113.190753 216.828479,113.294498 C264.763754,113.294498 303.754045,152.38835 303.754045,200.440129 C303.754045,248.491909 264.763754,287.585761 216.828479,287.585761 C209.272835,287.593936 201.748512,286.614773 194.446602,284.673139 C187.638718,283.084309 180.759628,287.023407 178.684128,293.699031 C176.608628,300.374656 180.041538,307.519829 186.550162,310.071197 C186.899676,310.200647 187.275081,310.252427 187.63754,310.343042 C188.20712,310.498382 188.750809,310.653722 189.320388,310.731392 C198.315567,312.990797 207.553887,314.138523 216.828479,314.148867 C279.378641,314.148867 330.252427,263.145631 330.252427,200.440129 C330.252427,137.747573 279.378641,86.7313916 216.828479,86.7313916 C177.087379,86.7313916 141.035599,106.977346 120.194175,140.893204 Z" id="Shape" fill="#000000" fill-rule="nonzero"></path>
    </g>
</svg>