<?xml version="1.0" encoding="UTF-8"?>
<svg width="400px" height="400px" viewBox="0 0 400 400" version="1.1" xmlns="http://www.w3.org/2000/svg" xmlns:xlink="http://www.w3.org/1999/xlink">
    <!-- Generator: Sketch 51.3 (57544) - http://www.bohemiancoding.com/sketch -->
    <title>projects/funk-factory/logo</title>
    <desc>Created with Sketch.</desc>
    <defs>
        <radialGradient cx="49.7555877%" cy="50%" fx="49.7555877%" fy="50%" r="47.7293981%" id="radialGradient-1">
            <stop stop-color="#FFFFFF" offset="0%"></stop>
            <stop stop-color="#FFFFFF" stop-opacity="0" offset="100%"></stop>
        </radialGradient>
        <filter x="-73.5%" y="-73.5%" width="247.1%" height="247.1%" filterUnits="objectBoundingBox" id="filter-2">
            <feGaussianBlur stdDeviation="50" in="SourceGraphic"></feGaussianBlur>
        </filter>
        <path d="M67.1226974,33.9580661 L67.1226974,33.7676016 L164.368624,2.06789851 C165.881534,1.37974749 167.483226,0.852711943 169.151786,0.508708204 L170.252324,0.149961767 L170.301945,0.302412917 C171.42992,0.130016521 172.585216,0.0406043876 173.761394,0.0406043876 C186.304032,0.0406043876 196.47185,10.2084218 196.47185,22.7510602 L196.47185,170.670878 C196.498756,171.340495 196.512338,172.013554 196.512338,172.689794 C196.512338,199.905711 174.512414,221.96857 147.374132,221.96857 C125.768521,221.96857 107.419722,207.98461 100.836187,188.549479 L100.836187,205.640335 C100.836187,210.588913 99.3869623,215.199007 96.8897757,219.069353 C89.245801,237.232105 71.3214418,249.979698 50.4282157,249.979698 C22.5886618,249.979698 0.0202442808,227.346719 0.0202442808,199.427524 C0.0202442808,171.508329 22.5886618,148.87535 50.4282157,148.87535 C50.6961582,148.87535 50.9636124,148.877447 51.230563,148.881624 L51.230563,57.1121341 C51.230563,46.5546896 57.8267427,37.5378654 67.1226974,33.9580661 Z M100.836187,100.832561 L100.836187,156.830108 C107.419722,137.394978 125.768521,123.411017 147.374132,123.411017 C148.610938,123.411017 149.837073,123.456842 151.050938,123.546891 L151.050938,85.0482545 L100.836187,100.832561 Z" id="path-3"></path>
    </defs>
    <g id="projects/funk-factory/logo" stroke="none" stroke-width="1" fill="none" fill-rule="evenodd">
        <rect id="Rectangle-2" fill="#FDBD2F" fill-rule="nonzero" x="0" y="0" width="400" height="400" rx="107"></rect>
        <path d="M413,233.618989 C413,233.618989 214.558217,203.467324 199.293465,200.293465 L199.819836,200.293465 L199.293465,200.293465 C215.084588,196.590629 413,164.323058 413,164.323058 L413,233.618989 Z M199.131794,199.779821 C199.658427,199.779821 200.185061,200.306242 200.185061,200.306242 C200.185061,199.779821 200.185061,199.779821 199.131794,199.779821 C199.658427,200.306242 200.185061,200.306242 200.185061,200.306242 C200.185061,200.306242 200.185061,199.779821 199.131794,199.779821 C199.658427,200.306242 199.658427,200.832663 199.658427,200.832663 L199.131794,200.306242 C199.131794,200.832663 199.658427,200.832663 199.658427,200.832663 C199.658427,200.832663 199.658427,200.306242 199.131794,199.779821 L199.131794,202.938348 L199.131794,202.411927 L199.131794,201.885505 L199.131794,201.359084 L199.131794,199.779821 L198.60516,200.306242 L199.131794,199.779821 L198.60516,200.306242 C198.078527,200.306242 197.551893,199.779821 197.551893,199.779821 L199.131794,199.779821 L198.60516,199.779821 L198.078527,199.2534 L198.60516,199.779821 C198.60516,199.2534 198.078527,199.2534 198.078527,199.2534 L198.60516,199.779821 L198.60516,198.726979 L199.131794,199.2534 L199.131794,198.726979 L199.131794,199.779821 C198.60516,198.726979 198.60516,199.2534 199.131794,199.779821 L198.60516,199.2534 L198.60516,198.726979 L198.60516,199.2534 C194.918726,183.460766 162.794081,-14.4735789 162.794081,-14.4735789 L232.309705,-15 C232.309705,-15 202.291595,183.460766 199.131794,198.726979 L199.131794,197.674136 L199.131794,198.200558 C199.131794,197.674136 199.658427,197.674136 199.658427,197.674136 L199.658427,198.726979 C204.398129,183.460766 275.493653,-3.94515628 275.493653,-3.94515628 L335.529873,30.2722172 C335.529873,30.2722172 210.717731,187.145714 199.658427,198.726979 L200.185061,198.200558 L199.658427,198.726979 L200.185061,198.200558 L199.131794,199.779821 C211.244364,188.198556 366.074617,61.3310638 366.074617,61.3310638 L400.832428,120.816651 C401.359062,121.343073 214.404165,194.51561 199.131794,199.779821 C199.131794,199.2534 199.658427,199.2534 199.658427,199.2534 L199.131794,199.779821 C199.131794,199.2534 199.658427,199.2534 199.131794,199.779821 C199.658427,199.2534 200.185061,199.2534 200.185061,199.2534 L199.131794,199.779821 C199.658427,199.2534 200.185061,199.2534 200.185061,199.2534 L199.131794,199.779821 Z M198.764488,198.706535 L198.235512,199.235512 C198.764488,199.235512 198.764488,199.235512 198.764488,198.706535 Z M198.764488,199.764488 C187.65598,187.629711 60.1726264,31.9879971 60.1726264,31.9879971 L119.946979,-2.83353884 C119.946979,-2.83353884 194.003699,184.464116 198.764488,199.764488 C198.235512,199.236889 198.764488,199.236889 198.764488,199.764488 Z M197.706535,199.235512 C182.445905,194.493175 -4.89149199,123.358128 -4.89149199,123.358128 L29.3133697,63.2885327 C29.3133697,63.2885327 186.129505,188.696986 197.706535,199.235512 Z M197.706535,199.764488 C182.441783,203.467324 -15.4736292,235.734895 -15.4736292,235.734895 L-16,165.909988 C-16,165.909988 182.441783,196.061652 197.706535,199.764488 Z M198.235512,199.764488 L198.235512,202.409371 L198.235512,201.880395 L198.235512,200.293465 L198.235512,199.764488 L197.706535,200.822441 L197.706535,200.293465 L197.177559,200.293465 C197.177559,200.822441 197.706535,200.293465 198.235512,199.764488 C197.706535,200.293465 197.177559,200.293465 197.177559,200.293465 L197.706535,200.293465 L197.177559,200.293465 C197.177559,199.764488 197.177559,199.764488 198.235512,199.764488 Z M197.706535,199.764488 C186.129821,210.872996 30.8966045,338.35635 30.8966045,338.35635 L-3.83353884,278.581998 C-3.83353884,278.581998 182.446321,204.525277 197.706535,199.764488 Z M198.235512,200.293465 C193.493175,215.554095 122.358128,402.891492 122.358128,402.891492 L62.2885327,368.68663 C62.2885327,368.68663 187.17006,211.870495 198.235512,200.293465 Z M198.235512,200.293465 C201.938348,215.558217 234.205919,413.473629 234.205919,413.473629 L164.909988,414 C164.909988,414 195.061652,216.084588 198.235512,200.293465 Z M198.764488,200.293465 C209.872996,211.870179 337.35635,367.103396 337.35635,367.103396 L277.581998,401.833539 C277.053021,401.833539 203.525277,215.553679 198.764488,200.293465 Z M198.764488,199.764488 C214.025119,204.506825 401.362515,275.641872 401.362515,275.641872 L367.157654,335.711467 C367.683882,335.711467 210.867747,210.82994 198.764488,199.764488 C199.290717,199.764488 199.290717,200.291415 198.764488,199.764488 Z" id="Sun" fill="url(#radialGradient-1)" fill-rule="nonzero" style="mix-blend-mode: hard-light;"></path>
        <circle id="Oval-3" fill="#FFFFFF" filter="url(#filter-2)" cx="200" cy="201" r="102"></circle>
        <g id="Bitmap" transform="translate(84.000000, 66.000000)">
            <mask id="mask-4" fill="white">
                <use xlink:href="#path-3"></use>
            </mask>
            <use id="Mask" stroke="#FFFFFF" stroke-width="13" fill="#FFFFFF" xlink:href="#path-3"></use>
            <path d="M161.94867,66.8237923 L91.0523147,88.1061878 C88.4671965,89.2857651 86.7090172,90.4054435 85.7777767,91.4652229 C85.2833853,92.0278552 84.8588002,92.6838855 84.5040214,93.4333138 L84.5040214,189.069672 C85.5340178,192.424554 86.0884718,195.988444 86.0884718,199.682203 C86.0884718,219.573815 70.0091327,235.699153 50.1742627,235.699153 C30.3393927,235.699153 14.2600536,219.573815 14.2600536,199.682203 C14.2600536,179.790592 30.3393927,163.665254 50.1742627,163.665254 C55.8613305,163.665254 61.2396607,164.990898 66.0187695,167.350871 L66.0187668,56.3824579 C66.0187668,51.4535198 69.8769874,47.4257175 74.7380831,47.1543964 L168.95768,16.8721448 C170.412911,15.9162387 172.154252,15.3601695 174.025469,15.3601695 C179.130031,15.3601695 183.268097,19.4982347 183.268097,24.6027968 L183.268097,165.015847 C183.268097,165.018132 183.268096,165.020417 183.268094,165.022702 C183.958176,167.810638 184.324397,170.726836 184.324397,173.728814 C184.324397,193.620425 168.245058,209.745763 148.410188,209.745763 C128.575318,209.745763 112.495979,193.620425 112.495979,173.728814 C112.495979,153.837202 128.575318,137.711864 148.410188,137.711864 C154.307734,137.711864 159.873267,139.137448 164.782842,141.663745 L164.782842,68.9786498 C164.583813,68.3252521 164.328044,67.866683 164.015535,67.6029427 C163.620479,67.2695377 162.931524,67.0098209 161.94867,66.8237923 Z" id="Combined-Shape" fill="#101010" mask="url(#mask-4)"></path>
        </g>
    </g>
</svg>