<svg width="400" height="400" xmlns="http://www.w3.org/2000/svg"><g fill-rule="nonzero" fill="none"><circle fill="#E6E6E6" cx="200" cy="200" r="200"/><path d="M101.59 309.09H32.365C69.245 365.824 132.333 400.037 200 400l-5.306-2.652a220.5 220.5 0 01-93.103-88.257z" fill="#FF9F03"/><path d="M75.747 236.364H3.308a198.797 198.797 0 0029.051 72.727h69.232a220.49 220.49 0 01-25.844-72.727z" fill="#FDEB5D"/><path d="M72.727 200a220.76 220.76 0 013.02-36.364H3.308a201.523 201.523 0 000 72.728h72.439A220.77 220.77 0 0172.727 200z" fill="#8726E2"/><path d="M298.41 90.91h69.226C330.755 34.176 267.667-.037 200 0l5.306 2.652a220.507 220.507 0 0193.103 88.257zM101.59 90.91H32.365a198.797 198.797 0 00-29.051 72.726H75.75a220.49 220.49 0 0125.84-72.727z" fill="#58C989"/><path d="M194.694 2.652L200 0C132.331-.038 69.241 34.175 32.36 90.91h69.23a220.507 220.507 0 0193.104-88.258z" fill="#C44801"/><path d="M324.253 163.636h72.439a198.797 198.797 0 00-29.051-72.727h-69.232a220.49 220.49 0 0125.844 72.727z" fill="#FF9F03"/><path d="M396.692 163.636h-72.439a220.485 220.485 0 010 72.728h72.439a201.523 201.523 0 000-72.728z" fill="#48BDFF"/><path d="M205.306 397.348L200 400c67.669.038 130.759-34.175 167.64-90.91h-69.23a220.5 220.5 0 01-93.104 88.258z" fill="#C44801"/><path d="M298.41 309.09h69.226a198.797 198.797 0 0029.051-72.726h-72.434a220.49 220.49 0 01-25.844 72.727zM232.376 90.91a461.75 461.75 0 0111.641 72.726h80.236A220.49 220.49 0 00298.41 90.91h-66.033z" fill="#E7E7EB"/><path d="M232.376 90.91h66.033a220.507 220.507 0 00-93.108-88.258L200 0l4.074 8.964a461.607 461.607 0 0128.302 81.945z" fill="#48BDFF"/><path d="M298.41 309.09h-66.034a461.607 461.607 0 01-28.302 81.946L200 400l5.306-2.652a220.5 220.5 0 0093.103-88.257z" fill="#8726E2"/><path d="M245.455 200c0 12.157-.48 24.278-1.438 36.364h80.236a220.485 220.485 0 000-72.728h-80.236A463.91 463.91 0 01245.455 200z" fill="#C44801"/><path d="M232.376 309.09h66.033a220.49 220.49 0 0025.84-72.726h-80.232a461.75 461.75 0 01-11.64 72.727z" fill="#FF9F03"/><path d="M167.624 90.91H101.59a220.49 220.49 0 00-25.84 72.726h80.237a461.75 461.75 0 0111.636-72.727z" fill="#C44801"/><path d="M167.624 309.09H101.59a220.5 220.5 0 0093.108 88.258L200 400l-4.074-8.964a461.607 461.607 0 01-28.302-81.945z" fill="#58C989"/><path d="M154.545 200c0-12.157.48-24.278 1.438-36.364H75.747a220.485 220.485 0 000 72.728h80.236A464.648 464.648 0 01154.545 200z" fill="#FF9F03"/><path d="M75.747 236.364a220.49 220.49 0 0025.844 72.727h66.037a461.75 461.75 0 01-11.64-72.727H75.747z" fill="#E7E7EB"/><path d="M101.59 90.91h66.038a461.607 461.607 0 0128.303-81.946L200 0l-5.306 2.652a220.507 220.507 0 00-93.103 88.257z" fill="#FDEB5D"/><path d="M244.017 163.636a461.75 461.75 0 00-11.64-72.727h-64.753a461.75 461.75 0 00-11.641 72.727h88.034z" fill="#FDEB5D"/><path d="M167.624 90.91h64.752a461.607 461.607 0 00-28.302-81.946L200 0l-4.074 8.964a461.607 461.607 0 00-28.302 81.945z" fill="#8726E2"/><path d="M154.545 200c0 12.157.48 24.278 1.438 36.364h88.034A463.91 463.91 0 00245.455 200a455.229 455.229 0 00-1.438-36.364h-88.034A464.648 464.648 0 00154.545 200z" fill="#58C989"/><path d="M232.376 309.09h-64.752a461.607 461.607 0 0028.302 81.946L200 400l4.074-8.964a461.607 461.607 0 0028.302-81.945z" fill="#48BDFF"/><path d="M155.983 236.364a461.75 461.75 0 0011.64 72.727h64.753a461.75 461.75 0 0011.641-72.727h-88.034z" fill="#8726E2"/><path d="M163.636 218.182c-2.939 0-5.852-.108-8.74-.323.24 6.18.603 12.348 1.087 18.505h88.034A463.91 463.91 0 00245.455 200c0-4.832-.098-9.66-.25-14.48a117.782 117.782 0 01-81.569 32.662z" fill="#49B678"/><path d="M243.322 155.834c.25 2.598.49 5.198.695 7.802h80.236a220.348 220.348 0 00-15.383-51.83 150.194 150.194 0 01-65.548 44.028zM309.66 290.91c-.665 0-1.326-.015-1.987-.026a222.952 222.952 0 01-9.26 18.207h69.228a198.986 198.986 0 0025.63-57.522 108.295 108.295 0 01-83.612 39.34z" fill="#D3D3D3"/></g></svg>