<?xml version="1.0" encoding="UTF-8"?>
<svg width="2294px" height="2294px" viewBox="0 0 2294 2294" version="1.1" xmlns="http://www.w3.org/2000/svg" xmlns:xlink="http://www.w3.org/1999/xlink">
    <!-- Generator: Sketch 51.3 (57544) - http://www.bohemiancoding.com/sketch -->
    <title>sun</title>
    <desc>Created with Sketch.</desc>
    <defs></defs>
    <g id="sun" stroke="none" stroke-width="1" fill="none" fill-rule="evenodd">
        <path d="M1966.7938,0 C1650.25736,558.384496 1148.77829,1145.22171 1148.77829,1145.22171 C1148.77829,1145.22171 1735.6155,643.742636 2294,327.206202 L2294,640.186047 C1764.06822,928.269767 1148.77829,1145.22171 1148.77829,1145.22171 C1148.77829,1145.22171 1721.38915,1038.52403 2294,1013.62791 L2294,1280.37209 C1721.38915,1255.47597 1148.77829,1148.77829 1148.77829,1148.77829 C1148.77829,1148.77829 1764.06822,1365.73023 2294,1653.81395 L2294,1966.7938 C1735.6155,1650.25736 1148.77829,1148.77829 1148.77829,1148.77829 C1148.77829,1148.77829 1650.25736,1735.6155 1966.7938,2294 L1653.81395,2294 C1365.73023,1764.06822 1148.77829,1152.33488 1148.77829,1148.77829 C1148.77829,1148.77829 1255.47597,1721.38915 1280.37209,2294 L1017.1845,2294 C1042.08062,1721.38915 1148.77829,1152.33488 1148.77829,1148.77829 C1148.77829,1148.77829 931.826357,1764.06822 643.742636,2294 L327.206202,2294 C643.742636,1735.6155 1141.66512,1148.77829 1145.22171,1148.77829 C1145.22171,1148.77829 558.384496,1650.25736 0,1966.7938 L0,1653.81395 C529.931783,1365.73023 1141.66512,1148.77829 1145.22171,1148.77829 C1145.22171,1148.77829 572.610853,1255.47597 0,1280.37209 L0,1017.1845 C572.610853,1042.08062 1141.66512,1148.77829 1145.22171,1148.77829 C1145.22171,1148.77829 529.931783,931.826357 0,643.742636 L0,330.762791 C558.384496,647.299225 1145.22171,1145.22171 1145.22171,1148.77829 C1145.22171,1148.77829 643.742636,561.941085 327.206202,3.55658915 L640.186047,3.55658915 C928.269767,533.488372 1145.22171,1148.77829 1145.22171,1148.77829 C1145.22171,1148.77829 1038.52403,576.167442 1013.62791,3.55658915 L1276.8155,3.55658915 C1251.91938,576.167442 1145.22171,1148.77829 1145.22171,1148.77829 C1145.22171,1148.77829 1362.17364,533.488372 1650.25736,3.55658915 L1966.7938,3.55658915 L1966.7938,0 Z" fill="#000000" fill-rule="nonzero"></path>
    </g>
</svg>