<?xml version="1.0" encoding="UTF-8"?>
<svg width="708px" height="705px" viewBox="0 0 708 705" version="1.1" xmlns="http://www.w3.org/2000/svg" xmlns:xlink="http://www.w3.org/1999/xlink">
    <!-- Generator: Sketch 51.3 (57544) - http://www.bohemiancoding.com/sketch -->
    <title>Mascot</title>
    <desc>Created with Sketch.</desc>
    <defs>
        <linearGradient x1="31.9175398%" y1="5.27237794%" x2="71.1425719%" y2="92.6833748%" id="linearGradient-1">
            <stop stop-color="#D93635" offset="0%"></stop>
            <stop stop-color="#D63435" offset="100%"></stop>
        </linearGradient>
    </defs>
    <g id="Mascot" stroke="none" stroke-width="1" fill="none" fill-rule="evenodd">
        <g id="MascotWithoutMustache">
            <g id="MascotWithoutFace" fill-rule="evenodd" stroke-width="1">
                <g id="Group-2">
                    <g id="Group">
                        <path d="M354,705 C640.316154,705 729.342505,547.180374 703.852352,352.5 C678.362199,157.819626 581.041591,0 354,0 C126.958409,2.85347568e-14 29.637801,157.819626 4.14764779,352.5 C-21.3425054,547.180374 67.683846,705 354,705 Z" id="Oval" fill="url(#linearGradient-1)"></path>
                        <path d="M194.717503,112.000958 C205.344573,112.000982 210.67011,112.00137 210.694112,112.002121 C268.266134,113.804346 316.096304,117.097886 352.874336,117.097886 C389.927157,117.097886 438.207116,113.831378 498.195746,112.002121 C498.241653,112.000721 503.985898,112.000014 515.428482,112 L515.428482,112 C546.780033,111.999961 574.420316,132.562973 583.432166,162.591398 L640.562393,352.955285 C651.833753,390.512633 630.524749,430.096123 592.9674,441.367482 C586.620311,443.272311 580.037801,444.279178 573.411522,444.358766 C500.111528,445.239178 426.811535,446.119589 353.511541,447 C280.359787,445.528065 207.208033,444.056129 134.056279,442.584194 L134.056279,442.584194 C94.8519977,441.795339 63.7101419,409.374495 64.4989974,370.170214 C64.6345354,363.43429 65.7281306,356.751946 67.7468822,350.324219 L126.979595,161.726613 C136.273468,132.134818 163.700566,112.000886 194.717503,112.000958 Z" id="Rectangle" fill="#F4E0C9"></path>
                    </g>
                    <g id="Group-13" transform="translate(137.000000, 499.000000)" fill="#F7BD53">
                        <path d="M414.652559,6.05946146 L419.514583,6.42180458 C429.449903,7.1622359 436.799423,14.623228 435.930195,23.0863968 L430.910806,71.9572854 C430.041578,80.4204542 421.282761,86.6809699 411.347441,85.9405385 L406.485417,85.5781954 C396.550097,84.8377641 389.200577,77.376772 390.069805,68.9136032 L395.089194,20.0427146 C395.958422,11.5795458 404.717239,5.31903013 414.652559,6.05946146 Z" id="Rectangle-12"></path>
                        <path d="M16.485417,6.42180458 L21.347441,6.05946146 C31.2827612,5.31903013 40.0415781,11.5795458 40.910806,20.0427146 L45.9301953,68.9136032 C46.7994232,77.376772 39.4499032,84.8377641 29.514583,85.5781954 L24.652559,85.9405385 C14.7172388,86.6809699 5.95842191,80.4204542 5.08919402,71.9572854 L0.0698046665,23.0863968 C-0.799423224,14.623228 6.55009677,7.1622359 16.485417,6.42180458 Z" id="Rectangle-12"></path>
                        <path d="M114.982405,0.238702575 L119.818959,0.0214319806 C129.702234,-0.422550392 138.134102,6.08519111 138.652062,14.5568794 L143.974997,101.618048 C144.492957,110.089736 136.90087,117.317315 127.017595,117.761297 L122.181041,117.978568 C112.297766,118.42255 103.865898,111.914809 103.347938,103.443121 L98.0250031,16.3819524 C97.5070426,7.9102641 105.09913,0.682684948 114.982405,0.238702575 Z" id="Rectangle-12"></path>
                        <path d="M316.181041,0.0214319806 L321.017595,0.238702575 C330.90087,0.682684948 338.492957,7.9102641 337.974997,16.3819524 L332.652062,103.443121 C332.134102,111.914809 323.702234,118.42255 313.818959,117.978568 L308.982405,117.761297 C299.09913,117.317315 291.507043,110.089736 292.025003,101.618048 L297.347938,14.5568794 C297.865898,6.08519111 306.297766,-0.422550392 316.181041,0.0214319806 Z" id="Rectangle-12"></path>
                        <rect id="Rectangle-12" x="197" y="0" width="41" height="118" rx="20.5"></rect>
                    </g>
                </g>
            </g>
            <g id="Eyebrows" fill="#2D2A2C" fill-rule="evenodd">
                <path d="M447.058557,190.181641 C466.072266,187.189453 495.740234,197.015625 499.117187,190.181641 C502.494141,183.347656 504.099682,153.921875 466.072266,153.921875 C428.044849,153.921875 390.681641,185.185547 393.607422,196.261719 C396.533203,207.337891 428.044849,193.173828 447.058557,190.181641 Z" id="Path-4"></path>
                <path d="M261.612438,190.259766 C280.626146,187.267578 310.294114,197.09375 313.671068,190.259766 C317.048021,183.425781 318.653562,154 280.626146,154 C242.598729,154 205.235521,185.263672 208.161302,196.339844 C211.087083,207.416016 242.598729,193.251953 261.612438,190.259766 Z" id="Path-4" transform="translate(261.640545, 177.254350) scale(-1, 1) translate(-261.640545, -177.254350) "></path>
            </g>
            <g id="Glasses" fill="#2D2A2C" fill-rule="nonzero">
                <path d="M329.833964,263.602983 C329.944066,265.221271 330,266.854182 330,268.5 C330,308.576563 296.834041,341 256,341 C217.731764,341 186.198239,312.523198 182.386515,275.957833 C182.094249,275.985757 181.79858,276 181.5,276 C175.70101,276 171,270.627417 171,264 C171,257.372583 175.70101,252 181.5,252 C182.308935,252 183.096504,252.104546 183.852928,252.302459 C191.365694,220.038293 220.840341,196 256,196 C289.768845,196 318.293548,218.174137 327.153435,248.513223 C336.244537,245.051399 345.400605,243.306641 354.588867,243.306641 C363.723239,243.306641 372.825793,245.030993 381.864331,248.452488 C390.74453,218.144549 419.253693,196 453,196 C488.159659,196 517.634306,220.038293 525.147072,252.302459 C525.903496,252.104546 526.691065,252 527.5,252 C533.29899,252 538,257.372583 538,264 C538,270.627417 533.29899,276 527.5,276 C527.20142,276 526.905751,275.985757 526.613485,275.957833 C522.801761,312.523198 491.268236,341 453,341 C412.165959,341 379,308.576563 379,268.5 C379,266.829332 379.057636,265.171964 379.17106,263.529691 C370.907834,260.035119 362.728608,258.306641 354.588867,258.306641 C346.392421,258.306641 338.155937,260.059286 329.833964,263.602983 Z M453,327 C486.172115,327 513,300.772739 513,268.5 C513,236.227261 486.172115,210 453,210 C419.827885,210 393,236.227261 393,268.5 C393,300.772739 419.827885,327 453,327 Z M256,210 C222.827885,210 196,236.227261 196,268.5 C196,300.772739 222.827885,327 256,327 C289.172115,327 316,300.772739 316,268.5 C316,236.227261 289.172115,210 256,210 Z" id="Combined-Shape"></path>
            </g>
            <g id="Eyes" fill="#2D2A2C" fill-rule="evenodd">
                <circle id="Oval-2" cx="446" cy="268" r="28"></circle>
                <circle id="Oval-2" cx="263" cy="268" r="28"></circle>
            </g>
        </g>
        <g id="Mustache" fill="#2D2A2C">
            <path d="M354.606402,349.757737 C363.576568,349.02981 370.106205,347.708221 374.195312,345.792969 C378.396795,343.825082 382.695624,339.978077 387.091797,334.251953 C416.841797,342.406901 436.67513,352.113932 446.591797,363.373047 C461.466797,380.261719 494.873047,366.541016 491.185547,377.519531 C487.498047,388.498047 474.716797,402.953125 446.591797,407.634766 C427.861865,410.752519 396.997793,400.738921 353.999581,377.593972 C311.245638,400.559616 280.537753,410.489229 261.875925,407.382812 C233.750925,402.701172 220.969675,388.246094 217.282175,377.267578 C213.594675,366.289062 247.000925,380.009766 261.875925,363.121094 C271.792592,351.861979 291.625925,342.154948 321.375925,334 C325.772099,339.726124 330.070927,343.573129 334.27241,345.541016 C338.473893,347.508902 345.251887,348.850048 354.606394,349.564453 L354.606394,349.757738 Z"></path>
        </g>
    </g>
</svg>