<?xml version="1.0" encoding="UTF-8"?>
<svg width="16px" height="16px" viewBox="0 0 16 16" version="1.1" xmlns="http://www.w3.org/2000/svg" xmlns:xlink="http://www.w3.org/1999/xlink">
    <!-- Generator: Sketch 51.3 (57544) - http://www.bohemiancoding.com/sketch -->
    <title>icons/code</title>
    <desc>Created with Sketch.</desc>
    <defs></defs>
    <g id="icons/code" stroke="none" stroke-width="1" fill="none" fill-rule="evenodd">
        <g id="coding" fill="#000000" fill-rule="nonzero">
            <path d="M3,12.5005417 L13,12.5005417 L13,6 L3,6 L3,12.5005417 Z M10.0181515,8.71162359 C9.80909091,8.56307073 9.75454545,8.2751896 9.89090909,8.06156942 C10.0363333,7.84801114 10.3181515,7.79229221 10.5272727,7.93158954 L11.8909091,8.86023835 C12.0181515,8.95310323 12.0909091,9.09243151 12.0909091,9.25027086 C12.0909091,9.4081102 12.0181515,9.54743848 11.8909394,9.6402724 L10.527303,10.5689212 C10.3090606,10.7082495 10.0272727,10.6432441 9.89093939,10.4389413 C9.75454545,10.2253212 9.80909091,9.93744002 10.0181818,9.78888717 L10.8181818,9.2502399 L10.0181515,8.71162359 Z M6.68181818,10.9032967 L8.5,7.18870144 C8.61818182,6.95653924 8.89090909,6.8636434 9.10906061,6.97508126 C9.33633333,7.0958056 9.42727273,7.37440025 9.31818182,7.59724501 L7.5,11.3118403 C7.38181818,11.5440025 7.11821212,11.6368983 6.89093939,11.5254605 C6.66366667,11.4047361 6.57272727,11.1261724 6.68181818,10.9032967 Z M4.10906061,8.86026931 L5.47269697,7.93162049 C5.68181818,7.79229221 5.96363636,7.84801114 6.10906061,8.06160037 C6.24545455,8.27522055 6.19090909,8.56310169 5.98181818,8.71165454 L5.18184848,9.25027086 L5.98184848,9.78891812 C6.19090909,9.93747098 6.24545455,10.2253521 6.10909091,10.4389723 C5.97275758,10.6432441 5.69093939,10.7082495 5.47272727,10.5689522 L4.10909091,9.64030336 C3.98184848,9.54743848 3.90909091,9.4081102 3.90909091,9.25027086 C3.90909091,9.09243151 3.98184848,8.95310323 4.10906061,8.86026931 Z" id="Shape"></path>
            <path d="M15.53125,0 L0.46875,0 C0.20621875,0 0,0.234631111 0,0.533333333 L0,15.4666667 C0,15.7653689 0.20621875,16 0.46875,16 L15.53125,16 C15.7937813,16 16,15.7653689 16,15.4666667 L16,0.533333333 C16,0.234631111 15.7937813,0 15.53125,0 Z M11.75,1.85729763 C12.0125313,1.85729763 12.21875,2.06156942 12.21875,2.32162204 C12.21875,2.58167466 12.0125313,2.78594645 11.75,2.78594645 C11.4874688,2.78594645 11.28125,2.58167466 11.28125,2.32162204 C11.28125,2.06156942 11.4874688,1.85729763 11.75,1.85729763 Z M9.875,1.85729763 C10.1375313,1.85729763 10.34375,2.06156942 10.34375,2.32162204 C10.34375,2.58167466 10.1375313,2.78594645 9.875,2.78594645 C9.61246875,2.78594645 9.40625,2.58167466 9.40625,2.32162204 C9.40625,2.06156942 9.61246875,1.85729763 9.875,1.85729763 Z M2.375,1.85729763 L8,1.85729763 C8.26253125,1.85729763 8.46875,2.06156942 8.46875,2.32162204 C8.46875,2.58167466 8.26253125,2.78594645 8,2.78594645 L2.375,2.78594645 C2.11246875,2.78594645 1.90625,2.58167466 1.90625,2.32162204 C1.90625,2.06156942 2.11246875,1.85729763 2.375,1.85729763 Z M14,13.0277778 C14,13.2922537 13.7969538,13.5 13.5384615,13.5 L2.46153846,13.5 C2.20304615,13.5 2,13.2922537 2,13.0277778 L2,5.47222222 C2,5.2077463 2.20304615,5 2.46153846,5 L13.5384615,5 C13.7969538,5 14,5.2077463 14,5.47222222 L14,13.0277778 Z M13.625,2.78594645 C13.3624688,2.78594645 13.15625,2.58167466 13.15625,2.32162204 C13.15625,2.06156942 13.3624688,1.85729763 13.625,1.85729763 C13.8875312,1.85729763 14.09375,2.06156942 14.09375,2.32162204 C14.09375,2.58167466 13.8875312,2.78594645 13.625,2.78594645 Z" id="Shape"></path>
        </g>
    </g>
</svg>