<?xml version="1.0" encoding="UTF-8"?>
<svg width="16px" height="16px" viewBox="0 0 16 16" version="1.1" xmlns="http://www.w3.org/2000/svg" xmlns:xlink="http://www.w3.org/1999/xlink">
    <!-- Generator: Sketch 51.3 (57544) - http://www.bohemiancoding.com/sketch -->
    <title>icons/design</title>
    <desc>Created with Sketch.</desc>
    <defs></defs>
    <g id="icons/design" stroke="none" stroke-width="1" fill="none" fill-rule="evenodd">
        <path d="M14.59375,0 C13.9834375,0 13.468,0.39195811 13.2738437,0.9348659 L9.40625,0.9348659 L9.40625,0.46743295 C9.40625,0.209067178 9.19659375,0 8.9375,0 L7.0625,0 C6.80340625,0 6.59375,0.209067178 6.59375,0.46743295 L6.59375,0.9348659 L2.72615625,0.9348659 C2.532,0.39195811 2.0165625,0 1.40625,0 C0.6308125,0 0,0.629040102 0,1.40229885 C0,2.1755576 0.6308125,2.8045977 1.40625,2.8045977 C2.0165625,2.8045977 2.532,2.41263959 2.72615625,1.86942018 L4.5066875,1.86942018 C2.38403125,3.09350243 0.9375,5.38582478 0.9375,7.94636015 C0.9375,8.20472593 1.14715625,8.4137931 1.40625,8.4137931 C1.66534375,8.4137931 1.875,8.20472593 1.875,7.94636015 C1.875,5.12808225 3.8915625,2.70207407 6.59375,2.05882401 L6.59375,2.33716475 C6.59375,2.59553052 6.80340625,2.8045977 7.0625,2.8045977 L8.9375,2.8045977 C9.19659375,2.8045977 9.40625,2.59553052 9.40625,2.33716475 L9.40625,2.05882401 C12.1084375,2.70207407 14.125,5.12808225 14.125,7.94636015 C14.125,8.20472593 14.3346563,8.4137931 14.59375,8.4137931 C14.8528437,8.4137931 15.0625,8.20472593 15.0625,7.94636015 C15.0625,5.38666616 13.6160313,3.09350243 11.493375,1.8697318 L13.2738438,1.8697318 C13.468,2.41263959 13.9834375,2.8045977 14.59375,2.8045977 C15.3691875,2.8045977 16,2.1755576 16,1.40229885 C16,0.629040102 15.3691875,0 14.59375,0 Z" id="Shape" fill="#000000" fill-rule="nonzero"></path>
        <path d="M9.79310345,15.5251555 L9.79310345,14.0689655 L6.06896552,14.0689655 L6.06896552,15.5251555 C6.06896552,15.7876179 6.27717586,16 6.53448276,16 L9.32758621,16 C9.5848931,16 9.79310345,15.7876179 9.79310345,15.5251555 Z" id="Shape" fill="#000000" fill-rule="nonzero"></path>
        <path d="M4.324943,10.672405 C4.25039807,10.823917 4.26129119,11.0040083 4.35405339,11.1449248 L5.73360015,13.2413793 L10.2663789,13.2413793 L11.6459567,11.1449248 C11.7386879,11.0040083 11.749612,10.823917 11.6750671,10.672405 L8.46550743,4.13793103 L8.46550743,10.8833396 C8.46550743,11.144013 8.25729679,11.3549475 7.99998953,11.3549475 C7.74268228,11.3549475 7.53447164,11.144013 7.53447164,10.8833396 L7.53447164,4.13793103 L4.324943,10.672405 Z" id="Shape" fill="#000000" fill-rule="nonzero"></path>
    </g>
</svg>