<?xml version="1.0" encoding="UTF-8"?>
<svg width="16px" height="16px" viewBox="0 0 16 16" version="1.1" xmlns="http://www.w3.org/2000/svg" xmlns:xlink="http://www.w3.org/1999/xlink">
    <!-- Generator: Sketch 51.3 (57544) - http://www.bohemiancoding.com/sketch -->
    <title>icons/spotify</title>
    <desc>Created with Sketch.</desc>
    <defs></defs>
    <g id="icons/spotify" stroke="none" stroke-width="1" fill="none" fill-rule="evenodd">
        <path d="M7.99690492,0 C3.58740984,0 0,3.58767213 0,7.99753443 C0,12.4101246 3.58740984,16 7.99690492,16 C12.4098098,16 16,12.4101246 16,7.99753443 C16,3.58767213 12.4098098,0 7.99690492,0 Z M3.93862295,10.9361311 C4.86578361,10.6539016 5.81639344,10.5107934 6.7639082,10.5107934 C8.37314098,10.5107934 9.96180984,10.9186098 11.3588984,11.6905967 C11.4419934,11.7358689 11.5175344,11.8855869 11.551423,12.0719738 C11.5853115,12.2583082 11.5718295,12.449941 11.5174295,12.5496131 C11.4487607,12.6775082 11.3094295,12.7601836 11.1623869,12.7601836 C11.0895213,12.7601836 11.0254689,12.7438164 10.9614164,12.7091934 C9.67889836,12.0042492 8.2274623,11.6315803 6.7639082,11.6315803 C5.87971148,11.6315803 5.01167213,11.7624656 4.18465574,12.0202492 C4.14436721,12.0324721 4.10292459,12.0387148 4.06148197,12.0387148 C3.88039344,12.0387672 3.72322623,11.9234098 3.67050492,11.7522361 C3.59931803,11.5182164 3.74657049,10.9989246 3.93862295,10.9361311 Z M3.58977049,7.98966557 C4.62316066,7.70874754 5.69112131,7.56626885 6.76396066,7.56626885 C8.69261639,7.56626885 10.6077902,8.03294426 12.3036852,8.91651148 C12.4225574,8.97683934 12.5101639,9.07913443 12.5502951,9.20451148 C12.5910033,9.33151475 12.5787279,9.46806557 12.5152,9.58992787 C12.3638557,9.88611148 12.1869639,10.085141 12.0749115,10.085141 C11.9954885,10.085141 11.9188459,10.0660984 11.842518,10.0279607 C10.2677508,9.20792131 8.5591082,8.79213115 6.7639082,8.79213115 C5.76535082,8.79213115 4.78567869,8.92343607 3.85300984,9.18216393 C3.80962623,9.19391475 3.76508852,9.19984262 3.72076066,9.19984262 C3.49639344,9.19989508 3.29867541,9.04834098 3.24013115,8.83194754 C3.16516721,8.55050492 3.3364459,8.05854426 3.58977049,7.98966557 Z M3.50043279,6.06457705 C3.4530623,6.07627541 3.40464262,6.08215082 3.35648525,6.08215082 C3.08532459,6.08220328 2.85036066,5.89896393 2.78510164,5.63693115 C2.70331803,5.30523279 2.9108459,4.91992131 3.21138361,4.84422295 C4.38022295,4.55711475 5.57544918,4.41154098 6.7639082,4.41154098 C9.06455082,4.41154098 11.267882,4.92878689 13.3134689,5.94921967 C13.4555279,6.01930492 13.5614426,6.14027541 13.6118033,6.28983607 C13.6621639,6.4395541 13.6510426,6.6007082 13.5807475,6.74308197 C13.4849574,6.93481967 13.2779541,7.1412459 13.0498098,7.1412459 C12.9618361,7.1412459 12.8715016,7.12062951 12.7915016,7.08306885 C10.9124721,6.14295082 8.88451148,5.66625574 6.76396066,5.66625574 C5.67417705,5.6663082 4.57620984,5.80028852 3.50043279,6.06457705 Z" id="icon" fill="#000000" fill-rule="nonzero"></path>
    </g>
</svg>