<?xml version="1.0" encoding="UTF-8"?>
<svg width="16px" height="16px" viewBox="0 0 16 16" version="1.1" xmlns="http://www.w3.org/2000/svg" xmlns:xlink="http://www.w3.org/1999/xlink">
    <!-- Generator: Sketch 51.3 (57544) - http://www.bohemiancoding.com/sketch -->
    <title>icons/twitter-light</title>
    <desc>Created with Sketch.</desc>
    <defs></defs>
    <g id="icons/twitter" stroke="none" stroke-width="1" fill="none" fill-rule="evenodd">
        <path d="M16,2.56944176 C15.405,2.8356044 14.771,3.01202637 14.11,3.09768791 C14.79,2.68365714 15.309,2.03303736 15.553,1.24882637 C14.919,1.6343033 14.219,1.90658462 13.473,2.05853187 C12.871,1.40485275 12.013,1 11.077,1 C9.261,1 7.799,2.50315604 7.799,4.3458989 C7.799,4.61104176 7.821,4.86598681 7.875,5.10869451 C5.148,4.97306374 2.735,3.64021099 1.114,1.60982857 C0.831,2.11054066 0.665,2.68365714 0.665,3.30062418 C0.665,4.45909451 1.25,5.48601319 2.122,6.08054505 C1.595,6.07034725 1.078,5.91432088 0.64,5.66855385 C0.64,5.67875165 0.64,5.69200879 0.64,5.70526593 C0.64,7.3307956 1.777,8.68098462 3.268,8.99201758 C3.001,9.06646154 2.71,9.10215385 2.408,9.10215385 C2.198,9.10215385 1.986,9.08991648 1.787,9.04504615 C2.212,10.3697407 3.418,11.3436308 4.852,11.375244 C3.736,12.2655121 2.319,12.8019165 0.785,12.8019165 C0.516,12.8019165 0.258,12.7896791 0,12.7560264 C1.453,13.7115604 3.175,14.2571429 5.032,14.2571429 C11.068,14.2571429 14.368,9.15824176 14.368,4.73851429 C14.368,4.59064615 14.363,4.44787692 14.356,4.30612747 C15.007,3.83498901 15.554,3.24657582 16,2.56944176 Z" id="icon" fill="#FFFFFF" fill-rule="nonzero"></path>
    </g>
</svg>